<?xml version="1.0" encoding="UTF-8"?>
<!DOCTYPE svg PUBLIC "-//W3C//DTD SVG 1.1//EN" "http://www.w3.org/Graphics/SVG/1.1/DTD/svg11.dtd">
<svg version="1.1" xmlns="http://www.w3.org/2000/svg" xmlns:xlink="http://www.w3.org/1999/xlink" x="0" y="0" width="248.348" height="297.353" viewBox="0, 0, 248.348, 297.353">
  <defs>
    <clipPath id="Clip_1">
      <path d="M27.199,61.078 L277.548,61.078 L277.548,361.432 L27.199,361.432 z M152.374,80.078 L45.199,128.083 L45.199,199.533 Q45.199,249.213 75.9,290.24 Q106.601,331.268 152.374,342.432 Q198.146,331.268 228.847,290.24 Q259.548,249.213 259.548,199.533 L259.548,128.083 L152.374,80.078 z"/>
    </clipPath>
    <filter id="Shadow_2">
      <feGaussianBlur in="SourceAlpha" stdDeviation="8.5"/>
      <feOffset dx="0" dy="1" result="offsetblur"/>
      <feFlood flood-color="#000000"/>
      <feComposite in2="offsetblur" operator="in"/>
    </filter>
    <radialGradient id="Gradient_1" gradientUnits="userSpaceOnUse" cx="78.715" cy="121.625" r="245.794">
      <stop offset="0" stop-color="#FFFFFF"/>
      <stop offset="0.98" stop-color="#DCDCF2"/>
    </radialGradient>
  </defs>
  <g id="Layer_1" transform="translate(-28.199, -63.078)">
    <g>
      <path d="M152.374,80.078 L259.548,128.083 L259.548,199.533 Q259.548,249.213 228.847,290.24 Q198.146,331.268 152.374,342.432 Q106.601,331.268 75.9,290.24 Q45.199,249.213 45.199,199.533 L45.199,128.083 L152.374,80.078 z" clip-path="url(#Clip_1)" filter="url(#Shadow_2)" fill="rgba(0,0,0,0.459)"/>
      <path d="M152.374,80.078 L259.548,128.083 L259.548,199.533 Q259.548,249.213 228.847,290.24 Q198.146,331.268 152.374,342.432 Q106.601,331.268 75.9,290.24 Q45.199,249.213 45.199,199.533 L45.199,128.083 z" fill="url(#Gradient_1)"/>
    </g>
    <path d="M225.326,204.063 L225.326,218.447 L194.843,218.447 L218.476,242.08 L208.201,252.697 L174.293,218.447 L159.566,218.447 L159.566,233.175 L193.816,267.082 L183.198,277.357 L159.566,253.725 L159.566,284.207 L145.181,284.207 L145.181,253.725 L121.549,277.357 L110.931,267.082 L145.181,233.175 L145.181,218.447 L130.454,218.447 L96.546,252.697 L86.271,242.08 L109.904,218.447 L79.421,218.447 L79.421,204.063 L109.904,204.063 L86.271,180.43 L96.546,169.813 L130.454,204.063 L145.181,204.063 L145.181,189.335 L110.931,155.428 L121.549,145.153 L145.181,168.785 L145.181,138.303 L159.566,138.303 L159.566,168.785 L183.198,145.153 L193.816,155.428 L159.566,189.335 L159.566,204.063 L174.293,204.063 L208.201,169.813 L218.476,180.43 L194.843,204.063 z" fill="#8888FE"/>
  </g>
</svg>
