<?xml version="1.0" encoding="UTF-8"?>
<!DOCTYPE svg PUBLIC "-//W3C//DTD SVG 1.1//EN" "http://www.w3.org/Graphics/SVG/1.1/DTD/svg11.dtd">
<svg version="1.1" xmlns="http://www.w3.org/2000/svg" xmlns:xlink="http://www.w3.org/1999/xlink" x="0" y="0" width="200" height="200" viewBox="0, 0, 200, 200">
  <g id="Layer_1">
    <path d="M17.546,99.599 C17.948,98.486 19.25,97.579 20.44,97.579 L43.894,97.579 C45.09,97.579 45.737,98.486 45.32,99.599 L44.591,101.619 L16.807,101.619 z M67.546,82.195 L56.937,111.338 L15.437,111.338 C14.243,111.338 13.604,110.433 14.012,109.318 L14.746,107.296 L53.613,107.296 L56.412,99.599 C57.962,95.348 55.533,91.903 50.974,91.903 L17.488,91.903 C12.933,91.903 7.997,95.348 6.454,99.599 L2.916,109.318 C1.37,113.566 3.803,117 8.354,117 L65.979,117 L68.037,111.338 L78.647,82.195 z" fill="#575756"/>
    <path d="M111.378,107.372 L109.954,111.337 L84.234,111.337 C83.039,111.337 82.406,110.432 82.81,109.317 C83.222,108.204 84.23,107.295 85.71,107.295 L111.421,107.295 z M174.59,91.902 L132.892,91.902 L125.816,111.337 L120.921,111.337 L125.193,99.598 C126.737,95.347 124.295,91.902 119.751,91.902 L80.499,91.902 L78.432,97.578 L112.671,97.578 C113.866,97.578 114.497,98.485 114.091,99.598 L113.357,101.619 L82.752,101.619 C77.188,101.619 73.269,105.062 71.717,109.317 C71.588,109.666 71.495,110.006 71.423,110.333 C71.419,110.342 71.417,110.359 71.417,110.366 C71.345,110.7 71.301,111.019 71.278,111.337 L71.276,111.337 C71.034,114.603 73.346,117 77.151,117 L134.849,117 L141.915,97.578 L167.502,97.578 C168.701,97.578 169.346,98.485 168.937,99.598 L162.598,117 L173.685,117 L180.024,99.598 C181.578,95.347 179.141,91.902 174.59,91.902" fill="#575756"/>
    <path d="M187.672,92.968 L189.328,92.968 L189.328,97.552 L190.505,97.552 L190.505,92.968 L192.161,92.968 L192.161,91.931 L187.672,91.931 z" fill="#575756"/>
    <path d="M195.484,91.931 L194.377,94.518 L194.064,95.364 L193.985,95.364 L193.671,94.518 L192.625,91.931 L191.144,91.931 L191.144,97.551 L192.224,97.551 L192.224,93.692 L192.285,93.692 L192.591,94.518 L193.855,97.551 L194.159,97.551 L195.457,94.588 L195.771,93.717 L195.841,93.717 L195.841,97.551 L197,97.551 L197,91.931 z" fill="#575756"/>
  </g>
</svg>
