<?xml version="1.0" encoding="UTF-8"?>
<!DOCTYPE svg PUBLIC "-//W3C//DTD SVG 1.1//EN" "http://www.w3.org/Graphics/SVG/1.1/DTD/svg11.dtd">
<svg version="1.1" xmlns="http://www.w3.org/2000/svg" xmlns:xlink="http://www.w3.org/1999/xlink" x="0" y="0" width="200" height="200" viewBox="0, 0, 200, 200">
  <g id="Layer_1">
    <path d="M46.375,162.402 L31.516,162.402 C28.847,162.402 27.674,162.877 26.842,164.219 L26.502,164.807 L44.908,164.807 L43.122,167.904 L24.716,167.904 L21.351,173.733 L16.302,173.733 L21.613,164.534 C23.191,161.796 24.838,159.158 31.678,159.16 L48.249,159.16 z" fill="#182126"/>
    <path d="M42.481,173.732 L47.371,173.732 L55.784,159.159 L50.894,159.159 z" fill="#182126"/>
    <g>
      <path d="M73.4,165.359 L62.08,164.091 C61.471,164.019 61.388,163.625 61.692,163.176 C61.981,162.755 62.438,162.402 63.717,162.402 L80.242,162.402 L82.193,159.16 C82.193,159.16 66.983,159.165 65.699,159.165 C61.125,159.165 58.122,159.935 56.615,162.861 C55.269,165.483 57.456,166.922 60.339,167.242 L71.652,168.485 C72.616,168.575 73.075,168.868 72.893,169.476 C72.731,170.019 72.055,170.415 70.861,170.415 C69.328,170.415 52.244,170.42 52.244,170.42 L50.336,173.733 L66.958,173.733 C71.765,173.733 74.9,173.979 77.046,171.332 C78.042,170.102 79.274,165.98 73.4,165.359" fill="#182126"/>
      <path d="M153.666,170.418 L136.546,170.418 C135.578,170.418 135.355,169.956 135.722,169.211 L136.486,167.904 L155.04,167.904 L156.907,164.807 L138.256,164.807 C139.438,162.845 140.596,162.402 143.265,162.402 L158.216,162.402 L160.173,159.161 L143.81,159.161 C136.871,159.158 135.096,161.843 133.503,164.607 L131.242,168.668 C130.265,170.348 130.85,171.713 131.492,172.449 C132.409,173.504 133.699,173.733 134.976,173.733 L151.68,173.733 z" fill="#182126"/>
    </g>
    <path d="M120.71,173.739 L125.609,173.727 L134.021,159.155 L129.132,159.155 L125.87,164.801 L112.46,164.801 L115.721,159.155 L110.831,159.155 L102.414,173.727 L107.304,173.727 L110.674,167.898 L124.084,167.898 z" fill="#182126"/>
    <g>
      <path d="M101.6,170.424 L88.476,170.424 C86.232,170.424 84.629,170.511 84.205,169.426 C83.705,168.153 85.12,165.98 86.746,164.428 C88.626,162.635 90.935,162.408 96.082,162.408 L106.15,162.408 L108.1,159.166 L95.201,159.166 C88.158,159.166 84.392,160.378 81.207,165.286 C79.423,168.036 78.975,170.804 80.408,172.466 C81.068,173.23 82.475,173.739 84.21,173.739 L99.607,173.737 z" fill="#182126"/>
      <path d="M182.874,160.603 C181.871,159.718 180.655,159.159 178.419,159.159 L162.983,159.159 L154.571,173.734 L159.461,173.734 L162.826,167.905 L169.294,167.905 L174.957,173.734 L180.196,173.734 L174.614,167.905 L175.518,167.905 C181.984,167.905 183.374,164.862 183.66,163.096 C183.799,162.225 183.567,161.216 182.874,160.603 M178.801,164.04 C178.308,164.545 177.443,164.806 175.211,164.806 L164.614,164.806 L166.001,162.403 L176.513,162.403 C178.844,162.403 179.126,162.687 179.216,163.18 C179.274,163.488 179.099,163.734 178.801,164.04" fill="#182126"/>
      <path d="M38.293,141.472 C37.586,141.472 36.933,141.096 36.579,140.483 C36.226,139.871 36.226,139.116 36.579,138.504 L66.97,85.864 C67.324,85.254 67.977,84.876 68.684,84.876 C69.391,84.876 70.045,85.254 70.398,85.864 L100.789,138.504 C101.142,139.116 101.142,139.871 100.789,140.483 C100.435,141.096 99.782,141.472 99.075,141.472 z M105.976,141.472 C105.269,141.472 104.616,141.096 104.262,140.483 C103.908,139.871 103.908,139.116 104.262,138.504 L134.653,85.864 C135.006,85.254 135.659,84.876 136.367,84.876 C137.072,84.876 137.725,85.254 138.078,85.864 L168.471,138.504 C168.825,139.116 168.825,139.871 168.471,140.483 C168.118,141.096 167.465,141.472 166.757,141.472 z M72.135,82.857 C71.427,82.857 70.774,82.481 70.421,81.869 C70.067,81.256 70.067,80.502 70.421,79.889 L100.811,27.252 C101.165,26.639 101.818,26.261 102.525,26.261 C103.233,26.261 103.886,26.639 104.239,27.252 L134.63,79.889 C134.984,80.502 134.984,81.256 134.63,81.869 C134.276,82.481 133.623,82.857 132.916,82.857 z" fill="#182126"/>
    </g>
  </g>
</svg>
