<?xml version="1.0" encoding="UTF-8"?>
<!DOCTYPE svg PUBLIC "-//W3C//DTD SVG 1.1//EN" "http://www.w3.org/Graphics/SVG/1.1/DTD/svg11.dtd">
<svg version="1.1" xmlns="http://www.w3.org/2000/svg" xmlns:xlink="http://www.w3.org/1999/xlink" x="0" y="0" width="200" height="200" viewBox="0, 0, 200, 200">
  <g id="Layer_1">
    <path d="M96.161,53.869 L96.161,59.417 L63.666,59.417 L63.666,63.112 L96.161,63.112 L96.161,68.648 L63.666,68.648 L63.666,72.138 L96.113,72.138 L96.113,76.242 L114.165,53.869 L129.57,53.869 L148.044,76.651 L148.044,53.869 L185.81,53.869 C192.453,53.953 196.305,59.14 196.28,65.772 C196.256,72.403 192.453,77.686 185.81,77.686 L137.128,77.686 L134.264,73.991 L109.628,73.991 L106.571,77.686 L53.809,77.686 L53.809,53.869 L96.161,53.869 z M160.777,61.463 L160.777,70.297 L179.358,70.297 L179.358,70.316 L186.051,70.316 L186.051,61.463 L160.777,61.463 z M119.1,62.293 L113.961,68.648 L124.034,68.66 L119.1,62.293 z" fill="#000000"/>
    <path d="M13.576,53.869 L13.576,62.691 L36.984,62.691 L36.984,53.869 L47.034,53.869 L47.034,77.686 L36.984,77.686 L36.984,68.648 L13.576,68.648 L13.576,77.686 L3.719,77.686 L3.719,53.869 L13.576,53.869 z" fill="#000000"/>
    <g id="Layer_1">
      <g>
        <path d="M55.18,98.944 C55.18,98.944 38.924,90.059 22.77,104.497 C22.77,104.497 3.889,121.359 18.125,136.201 C18.125,136.201 25.799,144.581 43.367,138.624 L53.666,138.725 C53.666,138.725 31.453,153.87 14.692,140.845 C14.692,140.845 -5.904,123.58 19.439,99.752 C19.439,99.752 41.146,79.76 64.772,98.944 z" fill="#373535"/>
        <path d="M36.098,101.973 L30.14,110.555 L41.247,110.555 L25.395,133.879 L32.16,133.879 C32.16,133.879 38.622,134.788 54.271,110.656 L65.075,110.656 C65.075,110.656 78.403,109.142 91.427,102.074 z" fill="#EF5337"/>
        <path d="M52.454,134.484 L61.138,127.012 L57.704,112.877 L65.479,112.877 L67.196,120.753 L75.475,112.877 L84.561,112.877 L63.863,130.951 C63.863,130.951 58.917,136.302 52.454,134.484" fill="#373535"/>
        <path d="M142.618,134.485 L127.876,134.485 C127.876,134.485 141.204,113.282 146.556,113.079 C151.907,112.877 150.291,113.584 150.291,113.584 L139.892,128.629 L149.181,128.629 C149.181,128.629 146.455,133.676 142.618,134.485" fill="#373535"/>
        <path d="M148.878,134.485 C148.878,134.485 161.297,116.209 166.144,113.988 C166.144,113.988 170.383,112.373 171.595,113.282 L157.157,134.485 z" fill="#373535"/>
        <path d="M95.062,121.561 L88.5,121.561 L90.721,118.431 C102.736,117.219 95.062,121.561 95.062,121.561 M99.807,113.08 L86.984,113.08 L72.041,134.484 L77.293,134.484 C81.129,133.778 83.653,129.033 83.653,129.033 L85.268,126.306 C85.268,126.306 91.226,127.215 91.731,134.484 L99.606,134.484 C99.606,134.484 101.424,130.546 96.577,124.893 C96.577,124.893 98.091,125.398 101.02,123.984 C104.15,122.369 106.875,113.887 99.807,113.08" fill="#373535"/>
        <path d="M183.004,126.912 L177.451,126.811 L184.115,120.551 z M183.206,115.199 L160.186,134.282 C168.566,135.394 170.686,131.86 170.686,131.86 L182.197,131.86 C182.6,135.394 187.75,134.282 187.75,134.282 L193.202,112.878 C187.144,112.272 183.206,115.199 183.206,115.199" fill="#373535"/>
        <path d="M120.506,126.912 C116.467,129.235 112.328,129.436 111.217,127.517 C110.005,125.498 112.328,121.965 116.266,119.642 C120.304,117.321 124.444,117.118 125.555,119.137 C126.766,121.056 124.444,124.589 120.506,126.912 M132.723,115.199 C130.3,110.959 122.021,111.162 114.347,115.704 C106.573,120.147 102.433,127.215 104.857,131.455 C107.381,135.696 115.558,135.595 123.333,131.051 C131.006,126.609 135.248,119.541 132.723,115.199" fill="#373535"/>
      </g>
    </g>
  </g>
</svg>
