<?xml version="1.0" encoding="UTF-8"?>
<!DOCTYPE svg PUBLIC "-//W3C//DTD SVG 1.1//EN" "http://www.w3.org/Graphics/SVG/1.1/DTD/svg11.dtd">
<svg version="1.1" xmlns="http://www.w3.org/2000/svg" xmlns:xlink="http://www.w3.org/1999/xlink" x="0" y="0" width="200" height="200" viewBox="0, 0, 200, 200">
  <g id="Layer_1">
    <path d="M145.2,98.85 L185.4,98.85 L185.4,131.35 L145.2,131.35 z" fill="#2C55A1"/>
    <path d="M145.2,68.75 L185.4,68.75 L185.4,94.95 L145.2,94.95 z" fill="#DBDBD4"/>
    <path d="M61.5,68.85 L141.3,68.85 L141.3,88.55 L61.5,88.55 z" fill="#F6E600"/>
    <path d="M14.6,68.85 L57.6,68.85 L57.6,88.55 L14.6,88.55 z" fill="#E6333B"/>
    <path d="M48.6,121.25 C45.2,121.25 42.4,118.55 42.4,115.25 C42.4,111.95 45.2,109.25 48.6,109.25 C52,109.25 54.8,111.95 54.8,115.25 C54.8,118.55 52,121.25 48.6,121.25 M48.9,98.25 C39.6,98.25 32.1,105.85 32.1,115.15 C32.1,124.45 39.6,132.05 48.9,132.05 C58.2,132.05 65.7,124.45 65.7,115.15 C65.7,105.85 58.1,98.25 48.9,98.25 M83.2,121.05 C79.8,121.05 77,118.35 77,115.05 C77,111.75 79.8,109.05 83.2,109.05 C86.6,109.05 89.4,111.75 89.4,115.05 C89.4,118.45 86.6,121.05 83.2,121.05 M83.2,98.15 C73.9,98.15 66.4,105.75 66.4,115.05 C66.4,124.35 73.9,131.95 83.2,131.95 C92.5,131.95 100,124.35 100,115.05 C100,105.75 92.5,98.15 83.2,98.15 M27.2,122.25 L27.2,99.05 L14.6,99.05 L14.6,131.25 L38.2,131.25 L31.6,122.25 L27.2,122.25 z M123.5,99.15 L113,113.15 L113,99.05 L101.1,99.05 L101.1,130.95 L113.4,130.95 L113.4,119.35 L121.7,130.85 L137,130.85 L124.9,115.05 L137.1,99.05 L123.5,99.05 L123.5,99.15 z M185.4,94.35 L145.8,94.35 L145.8,68.85 L140.7,68.85 L140.7,88.05 L62.1,88.05 L62.1,68.85 L57,68.85 L57,88.05 L14.6,88.05 L14.6,93.15 L140.8,93.15 L140.8,131.35 L145.9,131.35 L145.9,99.55 L185.4,99.55 L185.4,94.35 z" fill="#060703"/>
  </g>
</svg>
