<?xml version="1.0" encoding="UTF-8"?>
<!DOCTYPE svg PUBLIC "-//W3C//DTD SVG 1.1//EN" "http://www.w3.org/Graphics/SVG/1.1/DTD/svg11.dtd">
<svg version="1.1" xmlns="http://www.w3.org/2000/svg" xmlns:xlink="http://www.w3.org/1999/xlink" x="0" y="0" width="200" height="200" viewBox="0, 0, 200, 200">
  <g id="Layer_1">
    <path d="M47.384,127.425 L47.384,128.588 L132.849,128.588 L145.058,116.379 L101.744,116.379 L101.744,73.065 L47.384,127.425 z M152.616,92.542 L152.616,23.356 L47.384,23.356 L47.384,93.123 L101.744,38.763 L125.581,62.6 L125.581,91.96 L152.616,92.542 z" fill="#AE0E36"/>
    <path d="M37.005,176.518 L43.185,176.518 L43.185,150.538 L35.366,150.538 L29.312,156.97 L23.259,150.538 L15.314,150.538 L15.314,176.518 L21.367,176.518 L21.367,157.601 L29.186,165.924 L37.005,157.601 L37.005,176.518 z M46.969,176.518 L71.057,176.518 L71.057,150.538 L46.969,150.538 L46.969,156.592 L64.877,156.592 L64.877,170.591 L52.391,170.591 L60.211,162.015 L51.887,162.015 L46.843,167.438 L46.843,176.518 L46.969,176.518 z M102.711,176.518 L93.253,166.303 L99.559,159.492 L99.559,150.538 L75.471,150.538 L75.471,176.518 L81.524,176.518 L81.524,156.592 L93.757,156.592 L84.929,166.429 L94.388,176.644 L102.711,176.518 z M128.817,176.518 L116.458,163.15 L128.187,150.664 L119.863,150.664 L110.026,161.258 L110.026,150.538 L103.847,150.538 L103.847,176.518 L109.9,176.518 L109.9,164.915 L120.62,176.392 C120.493,176.518 128.817,176.518 128.817,176.518 z M129.573,176.518 L153.661,176.518 L153.661,170.591 L135.754,170.591 L135.754,156.592 L147.987,156.592 L140.419,165.041 L148.743,165.041 L153.788,159.619 L153.788,150.538 L129.7,150.538 L129.7,176.518 L129.573,176.518 z M175.102,166.303 L181.407,159.492 L181.407,150.538 L157.319,150.538 L157.319,176.518 L163.499,176.518 L163.499,156.592 L175.984,156.592 L166.904,166.429 L176.363,176.644 L184.686,176.644 L175.102,166.303 z" fill="#000000"/>
  </g>
</svg>
