<?xml version="1.0" encoding="UTF-8"?>
<!DOCTYPE svg PUBLIC "-//W3C//DTD SVG 1.1//EN" "http://www.w3.org/Graphics/SVG/1.1/DTD/svg11.dtd">
<svg version="1.1" xmlns="http://www.w3.org/2000/svg" xmlns:xlink="http://www.w3.org/1999/xlink" x="0" y="0" width="1024" height="1024" viewBox="0, 0, 1024, 1024">
  <g id="Layer_1">
    <path d="M204.497,258.327 L147.886,367.793 L185.726,367.793 L194.773,347.771 L236.833,347.771 L240.438,367.8 L278.271,367.8 L256.405,258.334 L204.497,258.334 z M204.18,326.824 L227.482,280.863 L227.799,280.863 L234.823,326.824 L204.186,326.824 z M340.842,258.327 L304.398,258.327 L287.974,367.786 L378.371,367.786 L382.122,341.514 L328.169,341.514 L340.842,258.327 z M647.636,258.327 L612.621,340.43 L612.303,340.43 L602.607,258.327 L556.155,258.327 L515.67,367.786 L551.313,367.786 L577.889,288.798 L578.207,288.798 L586.646,367.779 L629.811,367.779 L662.657,290.684 L662.954,290.684 L668.431,367.779 L704.862,367.779 L695.331,258.327 L647.643,258.327 z M962.6,258.327 L950.252,338.545 L949.948,338.545 L915.236,258.327 L865.967,258.327 L849.557,367.786 L884.261,367.786 L894.89,289.282 L895.208,289.282 L928.055,367.779 L979.023,367.779 L995.447,258.327 L962.6,258.327 z M522.362,297.189 C525.484,280.303 520.856,270.137 510.946,264.198 C501.042,258.258 485.765,257.319 467.47,257.319 C449.175,257.319 433.539,258.258 421.336,264.198 C409.139,270.137 400.714,280.359 397.578,297.189 L391.777,328.862 C388.662,345.734 393.296,355.748 403.366,361.688 C413.435,367.627 428.532,368.732 446.827,368.732 C465.115,368.732 481.076,367.627 493.12,361.688 C505.172,355.748 513.453,345.734 516.574,328.862 L522.362,297.189 z M485.296,300.207 L480.137,326.645 C476.697,344.001 469.356,345.706 450.432,345.706 C431.509,345.706 424.63,344.201 428.063,326.645 L433.298,300.207 C436.751,282.852 444.714,281.284 463.009,281.284 C482.326,281.298 488.583,283.011 485.296,300.207 z M835.005,264.26 C824.991,258.32 809.825,257.381 791.53,257.381 C773.242,257.381 757.599,258.313 745.402,264.26 C733.199,270.199 724.752,280.365 721.631,297.189 L715.843,328.862 C712.722,345.734 717.349,355.748 727.425,361.688 C737.502,367.627 752.592,368.732 770.887,368.732 C789.182,368.732 805.135,367.627 817.166,361.688 C829.204,355.748 837.45,345.72 840.634,328.862 L846.408,297.189 C849.516,280.365 844.854,270.199 835.005,264.26 z M809.369,300.221 L804.272,326.659 C800.833,344.014 793.478,345.72 774.568,345.72 C755.658,345.72 748.766,344.215 752.198,326.659 L757.281,300.207 C760.721,282.852 768.698,281.284 786.992,281.284 C806.385,281.298 812.643,283.017 809.355,300.207 L809.369,300.221 z M138.21,318.53 L85.121,292.389 C76.516,288.17 75.88,286.45 76.668,282.527 C77.13,280.179 78.546,278.922 84.334,278.3 C87.946,277.99 94.673,277.817 101.247,277.817 C105.322,277.817 110.488,277.99 113.147,278.155 C122.705,278.777 123.79,280.172 122.54,286.443 L120.675,295.843 L154.647,295.843 L158.08,278.604 C160.904,264.363 155.897,257.305 137.423,257.305 L76.198,257.305 C53.649,257.305 47.689,261.38 44.256,278.597 L42.219,288.777 C40.188,299.123 43.006,305.063 58.511,312.742 L97.808,331.997 C109.238,337.64 110.17,339.042 109.39,342.813 C108.768,346.1 107.518,347.032 101.848,347.502 C92.89,347.534 91.219,347.82 87.4,347.184 C82.876,346.397 81.778,344.367 82.4,341.245 L84.582,330.278 L32.357,330.278 L29.221,345.934 C26.086,361.598 33.917,368.642 54.27,368.642 L115.668,368.642 C137.575,368.642 142.81,362.371 146.187,345.617 L148.369,334.967 C149.937,326.99 148.687,323.71 138.21,318.53 z" fill="#000000" id="h"/>
    <path d="M757.673,596.757 L730.933,664.907 L730.073,664.907 L703.111,596.757 L652.07,596.757 L652.07,706.411 L688.786,706.411 L688.786,642.344 L689.872,642.344 L716.459,706.411 L744.607,706.411 L771.13,642.344 L772.216,642.344 L772.216,706.407 L808.932,706.407 L808.932,596.757 L757.673,596.757 z M825.651,706.411 L863.024,706.411 L863.024,596.757 L825.651,596.757 L825.651,706.411 z M942.398,681.196 C921.981,681.196 916.328,667.758 916.328,651.374 C916.328,635.623 921.542,622.393 942.181,622.393 C955.216,622.393 962.173,627.222 965.427,634.785 L1006.502,634.785 C1000.844,608.941 981.282,593.824 942.398,593.824 C896.549,593.824 875.04,616.5 875.04,652.003 C875.04,687.089 896.336,709.562 942.181,709.562 C981.078,709.562 1000.849,693.602 1006.502,666.708 L966.31,666.708 C962.395,675.534 957.176,681.196 942.398,681.196 z M572.786,681.196 C552.142,681.196 546.715,667.971 546.715,651.795 C546.715,636.035 552.142,622.393 572.786,622.393 C593.859,622.393 599.083,635.415 599.083,651.795 C599.083,667.559 593.859,681.196 572.786,681.196 z M572.786,593.824 C526.724,593.824 505.65,616.093 505.65,651.795 C505.65,686.664 526.936,709.562 572.786,709.562 C618.848,709.562 640.139,687.298 640.139,651.795 C640.139,616.504 618.848,593.824 572.79,593.824 z M383.286,628.689 L422.356,628.689 L422.356,706.411 L461.099,706.411 L461.099,628.689 L500.4,628.689 L500.4,596.757 L383.286,596.757 L383.286,628.689 z M311.357,664.404 L327.244,630.232 L328.334,630.232 L344.352,664.404 L311.357,664.404 z M349.625,596.137 L305.948,596.137 L250.336,706.411 L291.895,706.411 L299.467,689.819 L356.039,689.819 L363.72,706.411 L405.256,706.411 L349.63,596.132 z M119.662,713.839 L118.924,713.839 L18.245,766.695 L17.498,765.59 L64.71,692.525 C79.828,669.044 82.027,663.531 86.843,641.14 L118.567,490.601 L120.033,490.601 L151.748,641.14 C156.545,663.531 158.763,669.044 173.88,692.525 L221.088,765.59 L220.346,766.695 L119.667,713.839 z" fill="#ED1847" id="h"/>
  </g>
</svg>
